<svg xmlns="http://www.w3.org/2000/svg" xmlns:xlink="http://www.w3.org/1999/xlink" width="500" zoomAndPan="magnify" viewBox="0 0 375 374.999991" height="500" preserveAspectRatio="xMidYMid meet" version="1.0"><defs><g/><clipPath id="aba80ec027"><path d="M 310 94 L 367.382812 94 L 367.382812 153.941406 L 310 153.941406 Z M 310 94 " clip-rule="nonzero"/></clipPath><clipPath id="b85c8bc19d"><path d="M 245.132812 94 L 303 94 L 303 153.941406 L 245.132812 153.941406 Z M 245.132812 94 " clip-rule="nonzero"/></clipPath><clipPath id="1aa18ef77d"><path d="M 280 45.191406 L 333 45.191406 L 333 130 L 280 130 Z M 280 45.191406 " clip-rule="nonzero"/></clipPath><clipPath id="9094953776"><path d="M 55.070312 109.765625 L 236.570312 109.765625 L 236.570312 144.265625 L 55.070312 144.265625 Z M 55.070312 109.765625 " clip-rule="nonzero"/></clipPath></defs><g clip-path="url(#aba80ec027)"><path fill="#75b22c" d="M 362.574219 94.507812 C 359.238281 94.601562 355.890625 94.75 352.574219 95.132812 C 350.902344 95.324219 349.238281 95.617188 347.59375 95.992188 C 333.132812 99.300781 318.25 107.078125 313.347656 121.972656 C 310.957031 129.238281 310.039062 136.964844 310.367188 144.59375 C 310.382812 144.878906 310.554688 147.433594 310.792969 149.855469 C 320.09375 130.746094 335.039062 114.714844 353.011719 104.296875 C 335.210938 116.582031 321.625 134.320312 314.398438 154.140625 C 318.664062 153.851562 326.816406 153.269531 332.195312 152.746094 C 339.75 152.007812 346.886719 148.261719 352.140625 142.785156 C 357.394531 137.308594 360.800781 130.175781 362.246094 122.726562 C 363.183594 117.890625 363.472656 112.964844 364.117188 108.089844 C 364.433594 105.675781 364.839844 103.269531 365.457031 100.910156 C 365.992188 98.878906 367.703125 94.429688 367.703125 94.429688 C 367.601562 94.695312 362.949219 94.496094 362.574219 94.503906 Z M 362.574219 94.507812 " fill-opacity="1" fill-rule="nonzero"/></g><g clip-path="url(#b85c8bc19d)"><path fill="#75b22c" d="M 250.261719 94.507812 C 253.59375 94.601562 256.941406 94.75 260.257812 95.132812 C 261.933594 95.324219 263.59375 95.617188 265.238281 95.992188 C 279.703125 99.300781 294.582031 107.078125 299.484375 121.972656 C 301.875 129.238281 302.796875 136.964844 302.464844 144.59375 C 302.453125 144.878906 302.277344 147.433594 302.039062 149.855469 C 292.738281 130.746094 277.792969 114.714844 259.820312 104.296875 C 277.625 116.582031 291.207031 134.320312 298.4375 154.140625 C 294.167969 153.851562 286.019531 153.269531 280.640625 152.746094 C 273.085938 152.007812 265.949219 148.261719 260.695312 142.785156 C 255.441406 137.308594 252.03125 130.175781 250.585938 122.726562 C 249.648438 117.890625 249.359375 112.964844 248.714844 108.089844 C 248.398438 105.675781 247.992188 103.269531 247.375 100.910156 C 246.839844 98.878906 245.132812 94.429688 245.132812 94.429688 C 245.230469 94.695312 249.886719 94.496094 250.261719 94.503906 Z M 250.261719 94.507812 " fill-opacity="1" fill-rule="nonzero"/></g><g clip-path="url(#1aa18ef77d)"><path fill="#8dcb42" d="M 332.273438 98.558594 C 323.492188 102.808594 314.628906 109.777344 310.898438 121.175781 C 309.992188 123.898438 309.292969 126.695312 308.777344 129.546875 L 306.417969 72.960938 L 304.058594 129.621094 C 303.566406 126.722656 302.84375 123.898438 301.9375 121.152344 C 298.207031 109.804688 289.371094 102.808594 280.589844 98.558594 C 282.011719 91.902344 284.371094 85.863281 287.039062 81.125 C 289.65625 76.460938 292.972656 72.316406 298.699219 61.484375 C 302.222656 54.777344 304.785156 49.101562 306.417969 45.242188 C 308.074219 49.101562 310.640625 54.777344 314.164062 61.484375 C 319.863281 72.316406 323.207031 76.460938 325.824219 81.125 C 328.492188 85.863281 330.847656 91.902344 332.273438 98.558594 Z M 332.273438 98.558594 " fill-opacity="1" fill-rule="nonzero"/></g><g fill="#133c0b" fill-opacity="1"><g transform="translate(26.23467, 270.959451)"><g><path d="M 10.046875 -25.375 L 14.859375 -25.375 L 14.859375 0 L 9.8125 0 L 9.8125 -20.171875 L 3.984375 -14.75 L 3.984375 -19.9375 Z M 10.046875 -25.375 "/></g></g></g><g fill="#133c0b" fill-opacity="1"><g transform="translate(50.398266, 270.959451)"><g><path d="M 10.765625 0.34375 C 7.835938 0.34375 5.570312 -0.734375 3.96875 -2.890625 C 2.363281 -5.046875 1.5625 -8.3125 1.5625 -12.6875 C 1.5625 -17.082031 2.363281 -20.351562 3.96875 -22.5 C 5.570312 -24.644531 7.835938 -25.71875 10.765625 -25.71875 C 13.671875 -25.71875 15.925781 -24.644531 17.53125 -22.5 C 19.132812 -20.351562 19.9375 -17.082031 19.9375 -12.6875 C 19.9375 -9.757812 19.570312 -7.332031 18.84375 -5.40625 C 18.125 -3.488281 17.082031 -2.050781 15.71875 -1.09375 C 14.351562 -0.132812 12.703125 0.34375 10.765625 0.34375 Z M 10.765625 -4.21875 C 11.617188 -4.21875 12.351562 -4.507812 12.96875 -5.09375 C 13.582031 -5.6875 14.054688 -6.609375 14.390625 -7.859375 C 14.722656 -9.117188 14.890625 -10.726562 14.890625 -12.6875 C 14.890625 -14.675781 14.71875 -16.296875 14.375 -17.546875 C 14.039062 -18.796875 13.5625 -19.710938 12.9375 -20.296875 C 12.3125 -20.878906 11.585938 -21.171875 10.765625 -21.171875 C 9.921875 -21.171875 9.1875 -20.878906 8.5625 -20.296875 C 7.945312 -19.710938 7.46875 -18.796875 7.125 -17.546875 C 6.789062 -16.296875 6.625 -14.675781 6.625 -12.6875 C 6.625 -10.726562 6.789062 -9.117188 7.125 -7.859375 C 7.457031 -6.609375 7.929688 -5.6875 8.546875 -5.09375 C 9.171875 -4.507812 9.910156 -4.21875 10.765625 -4.21875 Z M 10.765625 -4.21875 "/></g></g></g><g fill="#133c0b" fill-opacity="1"><g transform="translate(74.561862, 270.959451)"><g><path d="M 10.765625 0.34375 C 7.835938 0.34375 5.570312 -0.734375 3.96875 -2.890625 C 2.363281 -5.046875 1.5625 -8.3125 1.5625 -12.6875 C 1.5625 -17.082031 2.363281 -20.351562 3.96875 -22.5 C 5.570312 -24.644531 7.835938 -25.71875 10.765625 -25.71875 C 13.671875 -25.71875 15.925781 -24.644531 17.53125 -22.5 C 19.132812 -20.351562 19.9375 -17.082031 19.9375 -12.6875 C 19.9375 -9.757812 19.570312 -7.332031 18.84375 -5.40625 C 18.125 -3.488281 17.082031 -2.050781 15.71875 -1.09375 C 14.351562 -0.132812 12.703125 0.34375 10.765625 0.34375 Z M 10.765625 -4.21875 C 11.617188 -4.21875 12.351562 -4.507812 12.96875 -5.09375 C 13.582031 -5.6875 14.054688 -6.609375 14.390625 -7.859375 C 14.722656 -9.117188 14.890625 -10.726562 14.890625 -12.6875 C 14.890625 -14.675781 14.71875 -16.296875 14.375 -17.546875 C 14.039062 -18.796875 13.5625 -19.710938 12.9375 -20.296875 C 12.3125 -20.878906 11.585938 -21.171875 10.765625 -21.171875 C 9.921875 -21.171875 9.1875 -20.878906 8.5625 -20.296875 C 7.945312 -19.710938 7.46875 -18.796875 7.125 -17.546875 C 6.789062 -16.296875 6.625 -14.675781 6.625 -12.6875 C 6.625 -10.726562 6.789062 -9.117188 7.125 -7.859375 C 7.457031 -6.609375 7.929688 -5.6875 8.546875 -5.09375 C 9.171875 -4.507812 9.910156 -4.21875 10.765625 -4.21875 Z M 10.765625 -4.21875 "/></g></g></g><g fill="#133c0b" fill-opacity="1"><g transform="translate(98.725455, 270.959451)"><g><path d="M 7.421875 -13.890625 C 6.609375 -13.890625 5.84375 -14.039062 5.125 -14.34375 C 4.414062 -14.644531 3.789062 -15.066406 3.25 -15.609375 C 2.707031 -16.160156 2.285156 -16.796875 1.984375 -17.515625 C 1.679688 -18.234375 1.53125 -19 1.53125 -19.8125 C 1.53125 -20.625 1.679688 -21.382812 1.984375 -22.09375 C 2.285156 -22.8125 2.707031 -23.441406 3.25 -23.984375 C 3.800781 -24.535156 4.429688 -24.960938 5.140625 -25.265625 C 5.859375 -25.578125 6.617188 -25.734375 7.421875 -25.734375 C 8.253906 -25.734375 9.023438 -25.578125 9.734375 -25.265625 C 10.453125 -24.960938 11.078125 -24.535156 11.609375 -23.984375 C 12.148438 -23.441406 12.570312 -22.8125 12.875 -22.09375 C 13.1875 -21.382812 13.34375 -20.625 13.34375 -19.8125 C 13.34375 -19 13.1875 -18.234375 12.875 -17.515625 C 12.570312 -16.804688 12.148438 -16.175781 11.609375 -15.625 C 11.078125 -15.082031 10.453125 -14.65625 9.734375 -14.34375 C 9.023438 -14.039062 8.253906 -13.890625 7.421875 -13.890625 Z M 6.140625 0.015625 L 19.421875 -25.390625 L 23.640625 -25.390625 L 10.359375 0.015625 Z M 7.421875 -17.25 C 7.929688 -17.25 8.375 -17.363281 8.75 -17.59375 C 9.132812 -17.820312 9.4375 -18.128906 9.65625 -18.515625 C 9.875 -18.898438 9.984375 -19.332031 9.984375 -19.8125 C 9.984375 -20.28125 9.863281 -20.707031 9.625 -21.09375 C 9.394531 -21.488281 9.085938 -21.796875 8.703125 -22.015625 C 8.316406 -22.242188 7.890625 -22.359375 7.421875 -22.359375 C 6.953125 -22.359375 6.523438 -22.25 6.140625 -22.03125 C 5.753906 -21.8125 5.441406 -21.507812 5.203125 -21.125 C 4.972656 -20.738281 4.859375 -20.300781 4.859375 -19.8125 C 4.859375 -19.332031 4.972656 -18.894531 5.203125 -18.5 C 5.441406 -18.113281 5.753906 -17.804688 6.140625 -17.578125 C 6.523438 -17.359375 6.953125 -17.25 7.421875 -17.25 Z M 22.546875 0.296875 C 21.710938 0.296875 20.9375 0.144531 20.21875 -0.15625 C 19.5 -0.457031 18.867188 -0.878906 18.328125 -1.421875 C 17.785156 -1.972656 17.363281 -2.601562 17.0625 -3.3125 C 16.757812 -4.03125 16.609375 -4.800781 16.609375 -5.625 C 16.609375 -6.4375 16.757812 -7.195312 17.0625 -7.90625 C 17.363281 -8.625 17.785156 -9.253906 18.328125 -9.796875 C 18.878906 -10.347656 19.515625 -10.773438 20.234375 -11.078125 C 20.953125 -11.378906 21.722656 -11.53125 22.546875 -11.53125 C 23.347656 -11.53125 24.101562 -11.378906 24.8125 -11.078125 C 25.53125 -10.773438 26.160156 -10.347656 26.703125 -9.796875 C 27.242188 -9.253906 27.664062 -8.625 27.96875 -7.90625 C 28.269531 -7.195312 28.421875 -6.4375 28.421875 -5.625 C 28.421875 -4.8125 28.269531 -4.046875 27.96875 -3.328125 C 27.664062 -2.617188 27.242188 -1.988281 26.703125 -1.4375 C 26.160156 -0.894531 25.53125 -0.46875 24.8125 -0.15625 C 24.101562 0.144531 23.347656 0.296875 22.546875 0.296875 Z M 22.546875 -3.09375 C 23.015625 -3.09375 23.441406 -3.207031 23.828125 -3.4375 C 24.210938 -3.664062 24.519531 -3.96875 24.75 -4.34375 C 24.988281 -4.726562 25.109375 -5.15625 25.109375 -5.625 C 25.109375 -6.082031 24.988281 -6.503906 24.75 -6.890625 C 24.519531 -7.285156 24.210938 -7.597656 23.828125 -7.828125 C 23.441406 -8.066406 23.015625 -8.1875 22.546875 -8.1875 C 22.066406 -8.1875 21.628906 -8.070312 21.234375 -7.84375 C 20.835938 -7.625 20.523438 -7.320312 20.296875 -6.9375 C 20.066406 -6.550781 19.953125 -6.113281 19.953125 -5.625 C 19.953125 -5.15625 20.066406 -4.726562 20.296875 -4.34375 C 20.523438 -3.96875 20.835938 -3.664062 21.234375 -3.4375 C 21.628906 -3.207031 22.066406 -3.09375 22.546875 -3.09375 Z M 22.546875 -3.09375 "/></g></g></g><g fill="#133c0b" fill-opacity="1"><g transform="translate(131.349211, 270.959451)"><g/></g></g><g fill="#133c0b" fill-opacity="1"><g transform="translate(143.384243, 270.959451)"><g><path d="M 20.609375 -25.375 L 25.859375 -25.375 L 25.859375 0 L 19.765625 0 L 8.53125 -18.140625 L 8.53125 0 L 3.28125 0 L 3.28125 -25.375 L 9.296875 -25.375 L 20.609375 -7.34375 Z M 20.609375 -25.375 "/></g></g></g><g fill="#133c0b" fill-opacity="1"><g transform="translate(175.218151, 270.959451)"><g><path d="M 20.265625 0 L 18.421875 -5.234375 L 7.765625 -5.234375 L 5.921875 0 L 0.53125 0 L 9.859375 -25.375 L 16.3125 -25.375 L 25.640625 0 Z M 9.296875 -9.640625 L 16.875 -9.640625 L 13.09375 -20.40625 Z M 9.296875 -9.640625 "/></g></g></g><g fill="#133c0b" fill-opacity="1"><g transform="translate(204.085738, 270.959451)"><g><path d="M 18 -25.375 L 18 -20.734375 L 11.96875 -20.734375 L 11.96875 0 L 6.765625 0 L 6.765625 -20.734375 L 0.703125 -20.734375 L 0.703125 -25.375 Z M 18 -25.375 "/></g></g></g><g fill="#133c0b" fill-opacity="1"><g transform="translate(225.47609, 270.959451)"><g><path d="M 12.671875 0.34375 C 11.273438 0.34375 9.976562 0.164062 8.78125 -0.1875 C 7.582031 -0.550781 6.53125 -1.109375 5.625 -1.859375 C 4.71875 -2.617188 4.007812 -3.582031 3.5 -4.75 C 3 -5.914062 2.75 -7.296875 2.75 -8.890625 L 2.75 -25.375 L 8.015625 -25.375 L 8.015625 -9.609375 C 8.015625 -8.316406 8.222656 -7.28125 8.640625 -6.5 C 9.054688 -5.726562 9.613281 -5.164062 10.3125 -4.8125 C 11.019531 -4.46875 11.804688 -4.296875 12.671875 -4.296875 C 13.546875 -4.296875 14.335938 -4.472656 15.046875 -4.828125 C 15.753906 -5.179688 16.316406 -5.742188 16.734375 -6.515625 C 17.148438 -7.296875 17.359375 -8.328125 17.359375 -9.609375 L 17.359375 -25.375 L 22.625 -25.375 L 22.625 -8.890625 C 22.625 -7.296875 22.367188 -5.914062 21.859375 -4.75 C 21.347656 -3.582031 20.640625 -2.617188 19.734375 -1.859375 C 18.828125 -1.109375 17.769531 -0.550781 16.5625 -0.1875 C 15.363281 0.164062 14.066406 0.34375 12.671875 0.34375 Z M 12.671875 0.34375 "/></g></g></g><g fill="#133c0b" fill-opacity="1"><g transform="translate(253.553828, 270.959451)"><g><path d="M 16.671875 0 L 10.78125 -9.359375 L 8.546875 -9.359375 L 8.546875 0 L 3.28125 0 L 3.28125 -25.375 L 11.625 -25.375 C 12.695312 -25.375 13.613281 -25.328125 14.375 -25.234375 C 15.144531 -25.148438 15.8125 -25.023438 16.375 -24.859375 C 16.9375 -24.703125 17.4375 -24.515625 17.875 -24.296875 C 19.113281 -23.640625 20.003906 -22.726562 20.546875 -21.5625 C 21.085938 -20.394531 21.359375 -19.0625 21.359375 -17.5625 C 21.359375 -15.96875 21.082031 -14.5625 20.53125 -13.34375 C 19.976562 -12.125 19.054688 -11.175781 17.765625 -10.5 C 17.296875 -10.238281 16.757812 -10.019531 16.15625 -9.84375 L 22.90625 0 Z M 8.546875 -20.96875 L 8.546875 -13.5 L 10.890625 -13.5 C 11.890625 -13.5 12.6875 -13.535156 13.28125 -13.609375 C 13.882812 -13.691406 14.378906 -13.863281 14.765625 -14.125 C 15.628906 -14.726562 16.0625 -15.757812 16.0625 -17.21875 C 16.0625 -17.9375 15.957031 -18.539062 15.75 -19.03125 C 15.539062 -19.53125 15.25 -19.925781 14.875 -20.21875 C 14.46875 -20.53125 13.953125 -20.734375 13.328125 -20.828125 C 12.710938 -20.921875 11.898438 -20.96875 10.890625 -20.96875 Z M 8.546875 -20.96875 "/></g></g></g><g fill="#133c0b" fill-opacity="1"><g transform="translate(280.104513, 270.959451)"><g><path d="M 20.265625 0 L 18.421875 -5.234375 L 7.765625 -5.234375 L 5.921875 0 L 0.53125 0 L 9.859375 -25.375 L 16.3125 -25.375 L 25.640625 0 Z M 9.296875 -9.640625 L 16.875 -9.640625 L 13.09375 -20.40625 Z M 9.296875 -9.640625 "/></g></g></g><g fill="#133c0b" fill-opacity="1"><g transform="translate(308.972087, 270.959451)"><g><path d="M 8.546875 -4.65625 L 16.5 -4.65625 L 16.5 0 L 3.28125 0 L 3.28125 -25.375 L 8.546875 -25.375 Z M 8.546875 -4.65625 "/></g></g></g><g fill="#133c0b" fill-opacity="1"><g transform="translate(12.78453, 219.034622)"><g><path d="M 6.5625 0 L 6.5625 -45.5625 L 17.5625 -45.5625 L 17.5625 -39.453125 L 18.421875 -39.28125 C 19.910156 -41.738281 21.648438 -43.546875 23.640625 -44.703125 C 25.640625 -45.859375 28.195312 -46.4375 31.3125 -46.4375 C 34.757812 -46.4375 37.53125 -45.753906 39.625 -44.390625 C 41.71875 -43.023438 43.242188 -41.035156 44.203125 -38.421875 L 45.078125 -38.421875 C 46.472656 -41.148438 48.28125 -43.164062 50.5 -44.46875 C 52.71875 -45.78125 55.476562 -46.4375 58.78125 -46.4375 C 68.226562 -46.4375 72.953125 -41.175781 72.953125 -30.65625 L 72.953125 0 L 61.515625 0 L 61.515625 -29.203125 C 61.515625 -31.878906 60.988281 -33.804688 59.9375 -34.984375 C 58.894531 -36.171875 57.21875 -36.765625 54.90625 -36.765625 C 48.625 -36.765625 45.484375 -32.566406 45.484375 -24.171875 L 45.484375 0 L 34.046875 0 L 34.046875 -29.203125 C 34.046875 -31.878906 33.515625 -33.804688 32.453125 -34.984375 C 31.390625 -36.171875 29.703125 -36.765625 27.390625 -36.765625 C 24.441406 -36.765625 22.140625 -35.78125 20.484375 -33.8125 C 18.835938 -31.84375 18.015625 -28.710938 18.015625 -24.421875 L 18.015625 0 Z M 6.5625 0 "/></g></g></g><g fill="#133c0b" fill-opacity="1"><g transform="translate(91.612093, 219.034622)"><g><path d="M 26.484375 0.875 C 22.015625 0.875 18.09375 -0.0390625 14.71875 -1.875 C 11.351562 -3.707031 8.738281 -6.394531 6.875 -9.9375 C 5.019531 -13.476562 4.09375 -17.753906 4.09375 -22.765625 C 4.09375 -27.773438 5.019531 -32.054688 6.875 -35.609375 C 8.738281 -39.160156 11.351562 -41.851562 14.71875 -43.6875 C 18.09375 -45.519531 22.015625 -46.4375 26.484375 -46.4375 C 30.941406 -46.4375 34.859375 -45.519531 38.234375 -43.6875 C 41.609375 -41.851562 44.234375 -39.160156 46.109375 -35.609375 C 47.984375 -32.054688 48.921875 -27.773438 48.921875 -22.765625 C 48.921875 -17.753906 47.984375 -13.476562 46.109375 -9.9375 C 44.234375 -6.394531 41.609375 -3.707031 38.234375 -1.875 C 34.859375 -0.0390625 30.941406 0.875 26.484375 0.875 Z M 26.484375 -8.84375 C 33.554688 -8.84375 37.09375 -13.484375 37.09375 -22.765625 C 37.09375 -27.585938 36.179688 -31.117188 34.359375 -33.359375 C 32.546875 -35.609375 29.921875 -36.734375 26.484375 -36.734375 C 19.398438 -36.734375 15.859375 -32.078125 15.859375 -22.765625 C 15.859375 -13.484375 19.398438 -8.84375 26.484375 -8.84375 Z M 26.484375 -8.84375 "/></g></g></g><g fill="#133c0b" fill-opacity="1"><g transform="translate(144.576943, 219.034622)"><g><path d="M 22.515625 0.875 C 18.910156 0.875 15.722656 0 12.953125 -1.75 C 10.179688 -3.5 8.007812 -6.144531 6.4375 -9.6875 C 4.875 -13.226562 4.09375 -17.585938 4.09375 -22.765625 C 4.09375 -27.972656 4.894531 -32.34375 6.5 -35.875 C 8.113281 -39.414062 10.34375 -42.0625 13.1875 -43.8125 C 16.039062 -45.5625 19.34375 -46.4375 23.09375 -46.4375 C 25.925781 -46.4375 28.382812 -45.945312 30.46875 -44.96875 C 32.550781 -43.988281 34.304688 -42.46875 35.734375 -40.40625 L 36.609375 -40.609375 L 36.609375 -63.875 L 48.046875 -63.875 L 48.046875 0 L 36.609375 0 L 36.609375 -5.90625 L 35.734375 -6.078125 C 34.460938 -3.921875 32.722656 -2.222656 30.515625 -0.984375 C 28.316406 0.253906 25.648438 0.875 22.515625 0.875 Z M 26.234375 -8.84375 C 29.453125 -8.84375 32 -9.988281 33.875 -12.28125 C 35.75 -14.582031 36.6875 -18.078125 36.6875 -22.765625 C 36.6875 -27.441406 35.75 -30.9375 33.875 -33.25 C 32 -35.570312 29.453125 -36.734375 26.234375 -36.734375 C 22.867188 -36.734375 20.296875 -35.609375 18.515625 -33.359375 C 16.742188 -31.117188 15.859375 -27.585938 15.859375 -22.765625 C 15.859375 -17.972656 16.742188 -14.453125 18.515625 -12.203125 C 20.296875 -9.960938 22.867188 -8.84375 26.234375 -8.84375 Z M 26.234375 -8.84375 "/></g></g></g><g fill="#133c0b" fill-opacity="1"><g transform="translate(199.194362, 219.034622)"><g><path d="M 20.859375 0.875 C 15.734375 0.875 11.953125 -0.519531 9.515625 -3.3125 C 7.078125 -6.113281 5.859375 -10.132812 5.859375 -15.375 L 5.859375 -45.5625 L 17.3125 -45.5625 L 17.3125 -16.8125 C 17.3125 -14.03125 17.910156 -12 19.109375 -10.71875 C 20.304688 -9.4375 22.15625 -8.796875 24.65625 -8.796875 C 27.832031 -8.796875 30.300781 -9.832031 32.0625 -11.90625 C 33.820312 -13.988281 34.703125 -17.265625 34.703125 -21.734375 L 34.703125 -45.5625 L 46.140625 -45.5625 L 46.140625 0 L 35.15625 0 L 35.15625 -6.6875 L 34.296875 -6.90625 C 32.828125 -4.28125 31.039062 -2.328125 28.9375 -1.046875 C 26.832031 0.234375 24.140625 0.875 20.859375 0.875 Z M 20.859375 0.875 "/></g></g></g><g fill="#133c0b" fill-opacity="1"><g transform="translate(251.911328, 219.034622)"><g><path d="M 21.3125 0.875 C 18.207031 0.875 15.359375 0.507812 12.765625 -0.21875 C 10.171875 -0.957031 7.957031 -1.96875 6.125 -3.25 C 4.300781 -4.53125 2.945312 -5.992188 2.0625 -7.640625 L 8.421875 -14.5 L 9.296875 -14.5 C 10.804688 -12.457031 12.59375 -10.925781 14.65625 -9.90625 C 16.726562 -8.894531 18.976562 -8.390625 21.40625 -8.390625 C 23.632812 -8.390625 25.3125 -8.785156 26.4375 -9.578125 C 27.570312 -10.378906 28.140625 -11.523438 28.140625 -13.015625 C 28.140625 -14.171875 27.734375 -15.140625 26.921875 -15.921875 C 26.109375 -16.710938 24.789062 -17.328125 22.96875 -17.765625 L 16.9375 -19.203125 C 12.414062 -20.285156 9.113281 -21.929688 7.03125 -24.140625 C 4.957031 -26.359375 3.921875 -29.175781 3.921875 -32.59375 C 3.921875 -35.425781 4.644531 -37.890625 6.09375 -39.984375 C 7.539062 -42.078125 9.578125 -43.675781 12.203125 -44.78125 C 14.835938 -45.882812 17.90625 -46.4375 21.40625 -46.4375 C 25.507812 -46.4375 28.910156 -45.84375 31.609375 -44.65625 C 34.304688 -43.476562 36.410156 -41.894531 37.921875 -39.90625 L 31.8125 -33.296875 L 30.984375 -33.296875 C 29.710938 -34.734375 28.285156 -35.78125 26.703125 -36.4375 C 25.117188 -37.101562 23.351562 -37.4375 21.40625 -37.4375 C 16.882812 -37.4375 14.625 -36.03125 14.625 -33.21875 C 14.625 -32.03125 15.039062 -31.0625 15.875 -30.3125 C 16.71875 -29.570312 18.203125 -28.96875 20.328125 -28.5 L 25.9375 -27.265625 C 30.570312 -26.273438 33.953125 -24.679688 36.078125 -22.484375 C 38.210938 -20.296875 39.28125 -17.359375 39.28125 -13.671875 C 39.28125 -10.785156 38.566406 -8.238281 37.140625 -6.03125 C 35.710938 -3.832031 33.644531 -2.128906 30.9375 -0.921875 C 28.238281 0.273438 25.03125 0.875 21.3125 0.875 Z M 21.3125 0.875 "/></g></g></g><g fill="#133c0b" fill-opacity="1"><g transform="translate(293.927918, 219.034622)"><g><path d="M 6.5625 0 L 6.5625 -63.875 L 18.015625 -63.875 L 18.015625 -28.421875 L 19.125 -28.421875 L 32.3125 -45.5625 L 43.921875 -45.5625 L 43.921875 -44.625 L 28.421875 -24.625 L 45.65625 -1.03125 L 45.65625 0 L 33.59375 0 L 19.125 -19.203125 L 18.015625 -19.203125 L 18.015625 0 Z M 6.5625 0 "/></g></g></g><g clip-path="url(#9094953776)"><path fill="#75b22c" d="M 55.175781 130.625 C 55.496094 129.800781 55.804688 129.140625 56.222656 128.546875 C 59.402344 124.082031 63.148438 120.195312 67.800781 117.238281 C 72.617188 114.179688 77.847656 112.140625 83.421875 110.972656 C 87.9375 110.023438 92.503906 109.761719 97.105469 109.992188 C 104.886719 110.378906 112.390625 112.097656 119.730469 114.628906 C 125.171875 116.503906 130.445312 118.800781 135.703125 121.125 C 141.269531 123.582031 146.832031 126.035156 152.535156 128.160156 C 158.082031 130.226562 163.722656 131.953125 169.527344 133.113281 C 173.921875 133.988281 178.355469 134.546875 182.832031 134.789062 C 186.667969 134.992188 190.5 134.929688 194.324219 134.59375 C 198.699219 134.210938 203.011719 133.441406 207.273438 132.375 C 212.816406 130.988281 218.25 129.265625 223.480469 126.941406 C 226.242188 125.710938 228.859375 124.238281 231.324219 122.496094 C 232.882812 121.398438 234.289062 120.101562 235.734375 118.863281 C 235.851562 118.761719 235.933594 118.621094 236.132812 118.574219 C 235.925781 119.542969 235.589844 120.441406 235.066406 121.269531 C 231.589844 126.730469 226.996094 130.992188 221.324219 134.105469 C 216.90625 136.53125 212.234375 138.347656 207.421875 139.828125 C 202.230469 141.425781 196.945312 142.601562 191.570312 143.375 C 188.523438 143.816406 185.457031 144.097656 182.378906 144.242188 C 179.851562 144.363281 177.328125 144.386719 174.804688 144.300781 C 171.457031 144.183594 168.128906 143.902344 164.808594 143.46875 C 153.191406 141.957031 141.976562 138.84375 130.957031 134.957031 C 125.054688 132.875 119.226562 130.59375 113.34375 128.457031 C 107.75 126.421875 102.109375 124.542969 96.316406 123.148438 C 92.089844 122.128906 87.824219 121.363281 83.480469 121.113281 C 75.773438 120.664062 68.523438 122.28125 61.746094 125.988281 C 61.007812 126.394531 60.296875 126.847656 59.625 127.355469 C 58.25 128.402344 56.789062 129.328125 55.472656 130.453125 C 55.425781 130.496094 55.363281 130.515625 55.175781 130.625 Z M 55.175781 130.625 " fill-opacity="1" fill-rule="nonzero"/></g></svg>